<svg width="36" height="36" viewBox="0 0 36 36" fill="none" xmlns="http://www.w3.org/2000/svg">
<g clip-path="url(#clip0_140_351)">
<path d="M18 14.7273V21.6982H27.6872C27.2619 23.94 25.9853 25.8383 24.0708 27.1146L29.9126 31.6474C33.3163 28.5057 35.2799 23.8911 35.2799 18.4093C35.2799 17.133 35.1654 15.9056 34.9526 14.7275L18 14.7273Z" fill="white"/>
<path d="M7.91192 21.426L6.59438 22.4346L1.93066 26.0673C4.89247 31.9417 10.9629 36 17.9992 36C22.8591 36 26.9336 34.3963 29.9119 31.6473L24.0701 27.1146C22.4664 28.1946 20.421 28.8492 17.9992 28.8492C13.3193 28.8492 9.34302 25.691 7.91928 21.4364L7.91192 21.426Z" fill="white"/>
<path d="M1.93077 9.93262C0.703563 12.3543 0 15.0871 0 17.9998C0 20.9125 0.703563 23.6452 1.93077 26.067C1.93077 26.0832 7.91996 21.4197 7.91996 21.4197C7.55996 20.3397 7.34718 19.1943 7.34718 17.9996C7.34718 16.8049 7.55996 15.6595 7.91996 14.5795L1.93077 9.93262Z" fill="white"/>
<path d="M17.9996 7.16727C20.6506 7.16727 23.0069 8.08361 24.8887 9.8509L30.0432 4.69642C26.9177 1.78375 22.8597 0 17.9996 0C10.9633 0 4.89247 4.04181 1.93066 9.93274L7.91967 14.58C9.34322 10.3254 13.3196 7.16727 17.9996 7.16727Z" fill="white"/>
</g>
<defs>
<clipPath id="clip0_140_351">
<rect width="36" height="36" fill="white"/>
</clipPath>
</defs>
</svg>
