<svg width="36" height="36" viewBox="0 0 36 36" fill="none" xmlns="http://www.w3.org/2000/svg">
<g clip-path="url(#clip0_140_349)">
<path fill-rule="evenodd" clip-rule="evenodd" d="M36 18C36 27.9411 27.9411 36 18 36C8.05888 36 0 27.9411 0 18C0 8.05888 8.05888 0 18 0C27.9411 0 36 8.05888 36 18ZM18.645 13.2884C16.8943 14.0166 13.3952 15.5238 8.14784 17.81C7.29575 18.1488 6.84939 18.4803 6.80875 18.8045C6.74008 19.3522 7.42607 19.5679 8.3602 19.8617C8.48727 19.9016 8.61893 19.943 8.75391 19.9869C9.67296 20.2857 10.9092 20.6352 11.5519 20.649C12.1349 20.6616 12.7856 20.4213 13.504 19.928C18.4067 16.6185 20.9376 14.9457 21.0965 14.9097C21.2086 14.8842 21.3639 14.8522 21.4691 14.9458C21.5744 15.0393 21.5641 15.2165 21.5529 15.264C21.4849 15.5537 18.7922 18.0571 17.3987 19.3527C16.9643 19.7565 16.6561 20.043 16.5931 20.1085C16.452 20.255 16.3082 20.3937 16.17 20.5269C15.3162 21.35 14.6759 21.9672 16.2054 22.9752C16.9405 23.4596 17.5286 23.8601 18.1154 24.2597C18.7563 24.6961 19.3954 25.1314 20.2224 25.6735C20.4331 25.8116 20.6343 25.9551 20.8303 26.0948C21.5761 26.6265 22.2461 27.1041 23.0739 27.0279C23.5549 26.9837 24.0517 26.5314 24.304 25.1825C24.9003 21.9947 26.0724 15.0877 26.3433 12.2415C26.3671 11.9921 26.3372 11.673 26.3132 11.5329C26.2893 11.3928 26.2392 11.1932 26.057 11.0454C25.8414 10.8704 25.5085 10.8335 25.3595 10.8361C24.6825 10.8481 23.6438 11.2092 18.645 13.2884Z" fill="white"/>
</g>
<defs>
<clipPath id="clip0_140_349">
<rect width="36" height="36" fill="white"/>
</clipPath>
</defs>
</svg>
