<svg width="36" height="36" viewBox="0 0 36 36" fill="none" xmlns="http://www.w3.org/2000/svg">
<g clip-path="url(#clip0_236_193)">
<path d="M0 17.28C0 9.1341 0 5.06119 2.5306 2.5306C5.06119 0 9.1341 0 17.28 0H18.72C26.8659 0 30.9388 0 33.4694 2.5306C36 5.06119 36 9.1341 36 17.28V18.72C36 26.8659 36 30.9388 33.4694 33.4694C30.9388 36 26.8659 36 18.72 36H17.28C9.1341 36 5.06119 36 2.5306 33.4694C0 30.9388 0 26.8659 0 18.72V17.28Z" fill="#0077FF"/>
<path d="M19.1551 25.9352C10.9501 25.9352 6.2702 20.3102 6.0752 10.9502H10.1852C10.3202 17.8202 13.3501 20.7302 15.7501 21.3302V10.9502H19.6203V16.8752C21.9903 16.6202 24.48 13.9202 25.32 10.9502H29.19C28.545 14.6102 25.845 17.3102 23.925 18.4202C25.845 19.3202 28.9202 21.6752 30.0902 25.9352H25.83C24.915 23.0852 22.6353 20.8802 19.6203 20.5802V25.9352H19.1551Z" fill="white"/>
</g>
<defs>
<clipPath id="clip0_236_193">
<rect width="36" height="36" fill="white"/>
</clipPath>
</defs>
</svg>
