<svg width="36" height="36" viewBox="0 0 36 36" fill="none" xmlns="http://www.w3.org/2000/svg">
<path d="M0 35.9999L2.53049 26.7554C0.968998 24.0494 0.1485 20.982 0.15 17.8365C0.1545 8.00248 8.15698 0 17.9895 0C22.7609 0.0015 27.2399 1.86 30.6089 5.23199C33.9764 8.60398 35.8304 13.086 35.8289 17.853C35.8244 27.6884 27.8219 35.6909 17.9895 35.6909C15.0045 35.6894 12.063 34.9409 9.45748 33.5189L0 35.9999ZM9.89548 30.2894C12.4095 31.7819 14.8095 32.6759 17.9835 32.6774C26.1554 32.6774 32.8124 26.0264 32.8169 17.85C32.8199 9.65698 26.1944 3.01499 17.9955 3.01199C9.81748 3.01199 3.16499 9.66298 3.16199 17.838C3.16049 21.1755 4.13849 23.6744 5.78099 26.2889L4.28249 31.7609L9.89548 30.2894ZM26.9759 22.0935C26.8649 21.9075 26.5679 21.7965 26.1209 21.573C25.6754 21.3495 23.4839 20.271 23.0744 20.1225C22.6664 19.974 22.3694 19.899 22.071 20.346C21.774 20.7915 20.919 21.7965 20.6595 22.0935C20.4 22.3905 20.139 22.428 19.6935 22.2045C19.248 21.981 17.811 21.5115 16.1085 19.992C14.784 18.81 13.8885 17.3505 13.629 16.9035C13.3695 16.458 13.602 16.2165 13.824 15.9945C14.025 15.795 14.2695 15.474 14.493 15.213C14.7195 14.955 14.793 14.769 14.943 14.4705C15.0915 14.1735 15.018 13.9125 14.9055 13.689C14.793 13.467 13.902 11.2725 13.5315 10.38C13.1685 9.51148 12.801 9.62848 12.528 9.61498L11.673 9.59998C11.376 9.59998 10.893 9.71098 10.485 10.158C10.077 10.605 8.92498 11.682 8.92498 13.8765C8.92498 16.071 10.5225 18.1905 10.7445 18.4875C10.968 18.7845 13.887 23.2874 18.3585 25.2179C19.422 25.6769 20.253 25.9514 20.8995 26.1569C21.9675 26.4959 22.9394 26.4479 23.7074 26.3339C24.5639 26.2064 26.3444 25.2554 26.7164 24.2144C27.0884 23.1719 27.0884 22.2795 26.9759 22.0935Z" fill="white"/>
</svg>
